<svg width="67" height="27" viewBox="0 0 67 27" fill="none" xmlns="http://www.w3.org/2000/svg">
<g filter="url(#filter0_bd)">
<path d="M39.6709 16.0332C39.0439 16.7949 38.1768 17.1758 37.0693 17.1758C36.0498 17.1758 35.2705 16.8828 34.7314 16.2969C34.1982 15.7109 33.9258 14.8525 33.9141 13.7217V7.49023H36.4541V13.6338C36.4541 14.624 36.9053 15.1191 37.8076 15.1191C38.6689 15.1191 39.2607 14.8203 39.583 14.2227V7.49023H42.1318V17H39.7412L39.6709 16.0332ZM53.6807 14.3721C53.6807 14.0615 53.5254 13.8184 53.2148 13.6426C52.9102 13.4609 52.418 13.2998 51.7383 13.1592C49.4766 12.6846 48.3457 11.7236 48.3457 10.2764C48.3457 9.43262 48.6943 8.72949 49.3916 8.16699C50.0947 7.59863 51.0117 7.31445 52.1426 7.31445C53.3496 7.31445 54.3135 7.59863 55.0342 8.16699C55.7607 8.73535 56.124 9.47363 56.124 10.3818H53.584C53.584 10.0186 53.4668 9.71973 53.2324 9.48535C52.998 9.24512 52.6318 9.125 52.1338 9.125C51.7061 9.125 51.375 9.22168 51.1406 9.41504C50.9062 9.6084 50.7891 9.85449 50.7891 10.1533C50.7891 10.4346 50.9209 10.6631 51.1846 10.8389C51.4541 11.0088 51.9053 11.1582 52.5381 11.2871C53.1709 11.4102 53.7041 11.5508 54.1377 11.709C55.4795 12.2012 56.1504 13.0537 56.1504 14.2666C56.1504 15.1338 55.7783 15.8369 55.0342 16.376C54.29 16.9092 53.3291 17.1758 52.1514 17.1758C51.3545 17.1758 50.6455 17.0352 50.0244 16.7539C49.4092 16.4668 48.9258 16.0771 48.5742 15.585C48.2227 15.0869 48.0469 14.5508 48.0469 13.9766H50.4551C50.4785 14.4277 50.6455 14.7734 50.9561 15.0137C51.2666 15.2539 51.6826 15.374 52.2041 15.374C52.6904 15.374 53.0566 15.2832 53.3027 15.1016C53.5547 14.9141 53.6807 14.6709 53.6807 14.3721Z" fill="#3E3232"/>
</g>
<g filter="url(#filter1_b)">
<path d="M1.29883 17V11.0527H0.198242V9.60352H1.29883V8.97461C1.29883 8.14518 1.53581 7.5026 2.00977 7.04688C2.48828 6.58659 3.15592 6.35645 4.0127 6.35645C4.28613 6.35645 4.62109 6.40202 5.01758 6.49316L4.99707 8.02441C4.83301 7.9834 4.63249 7.96289 4.39551 7.96289C3.65267 7.96289 3.28125 8.31152 3.28125 9.00879V9.60352H4.75098V11.0527H3.28125V17H1.29883ZM11.3477 17H9.36523V9.60352H11.3477V17ZM9.24902 7.68945C9.24902 7.39323 9.34701 7.14941 9.54297 6.95801C9.74349 6.7666 10.0146 6.6709 10.3564 6.6709C10.6937 6.6709 10.9626 6.7666 11.1631 6.95801C11.3636 7.14941 11.4639 7.39323 11.4639 7.68945C11.4639 7.99023 11.3613 8.23633 11.1562 8.42773C10.9557 8.61914 10.6891 8.71484 10.3564 8.71484C10.0238 8.71484 9.75488 8.61914 9.5498 8.42773C9.34928 8.23633 9.24902 7.99023 9.24902 7.68945ZM16.1602 13.2471C16.1602 12.0941 16.4176 11.1758 16.9326 10.4922C17.4521 9.80859 18.1608 9.4668 19.0586 9.4668C19.7786 9.4668 20.3734 9.73568 20.8428 10.2734V6.5H22.8252V17H21.041L20.9453 16.2139C20.4531 16.8291 19.8197 17.1367 19.0449 17.1367C18.1745 17.1367 17.4749 16.7949 16.9463 16.1113C16.4222 15.4232 16.1602 14.4684 16.1602 13.2471ZM18.1357 13.3906C18.1357 14.0833 18.2565 14.6143 18.498 14.9834C18.7396 15.3525 19.0905 15.5371 19.5508 15.5371C20.1615 15.5371 20.5921 15.2796 20.8428 14.7646V11.8457C20.5967 11.3307 20.1706 11.0732 19.5645 11.0732C18.612 11.0732 18.1357 11.8457 18.1357 13.3906Z" fill="#979797" fill-opacity="0.97"/>
</g>
<defs>
<filter id="filter0_bd" x="29.9141" y="3.31445" width="30.2363" height="21.8613" filterUnits="userSpaceOnUse" color-interpolation-filters="sRGB">
<feFlood flood-opacity="0" result="BackgroundImageFix"/>
<feGaussianBlur in="BackgroundImage" stdDeviation="2"/>
<feComposite in2="SourceAlpha" operator="in" result="effect1_backgroundBlur"/>
<feColorMatrix in="SourceAlpha" type="matrix" values="0 0 0 0 0 0 0 0 0 0 0 0 0 0 0 0 0 0 127 0"/>
<feOffset dy="4"/>
<feGaussianBlur stdDeviation="2"/>
<feColorMatrix type="matrix" values="0 0 0 0 0 0 0 0 0 0 0 0 0 0 0 0 0 0 0.25 0"/>
<feBlend mode="normal" in2="effect1_backgroundBlur" result="effect2_dropShadow"/>
<feBlend mode="normal" in="SourceGraphic" in2="effect2_dropShadow" result="shape"/>
</filter>
<filter id="filter1_b" x="-3.80176" y="2.35645" width="30.627" height="18.7803" filterUnits="userSpaceOnUse" color-interpolation-filters="sRGB">
<feFlood flood-opacity="0" result="BackgroundImageFix"/>
<feGaussianBlur in="BackgroundImage" stdDeviation="2"/>
<feComposite in2="SourceAlpha" operator="in" result="effect1_backgroundBlur"/>
<feBlend mode="normal" in="SourceGraphic" in2="effect1_backgroundBlur" result="shape"/>
</filter>
</defs>
</svg>
