<svg width="163" height="224" viewBox="0 0 163 224" fill="none" xmlns="http://www.w3.org/2000/svg">
<path opacity="0.5" d="M157.691 39.5027L83.8487 1.01926C82.8257 0.470284 81.8027 0.250696 80.7332 0.250696C77.7572 0.1409 74.8277 2.17212 73.5722 5.5758L15.8657 159.565C15.8657 159.619 15.8192 159.674 15.8192 159.729L13.9127 164.725C12.2387 169.227 13.9592 174.552 17.7722 176.583L91.6142 215.066C95.4272 217.043 99.9377 215.012 101.658 210.51L161.55 51.3058C163.271 46.8042 161.55 41.4791 157.691 39.5027Z" fill="#BEBEBF"/>
<path d="M88.4056 218.141C86.7316 222.642 82.1746 224.728 78.3616 222.697L4.51956 184.214C0.706564 182.237 -1.06043 176.857 0.660066 172.356L60.5521 13.1517C62.2261 8.65009 66.7366 6.56397 70.5961 8.59519L144.438 47.0787C148.251 49.055 150.018 54.435 148.298 58.9366L88.4056 218.141Z" fill="#333132"/>
<path d="M63.9707 21.9016L135.234 59.1376L82.6357 199.443L11.3729 162.207L63.9707 21.9016Z" fill="#5E5F61"/>
<path d="M89.5229 29.7391L113.164 42.0919L112.468 43.9493L88.8267 31.5965L89.5229 29.7391Z" fill="#5E5F61"/>
<path opacity="0.51" d="M130.767 71.0691L17.865 144.852L11.355 162.255L82.6395 199.475L130.767 71.0691Z" fill="#5E5F61"/>
<path d="M31.0708 172.575L112.585 119.599L104.401 141.338L44.6488 179.657L31.0708 172.575Z" fill="#5E5F61"/>
<path d="M85.4298 210.51C83.7558 215.012 79.1988 217.098 75.3858 215.066L6.4263 179.053C2.6133 177.077 0.846304 171.697 2.5668 167.195L60.3198 13.1517C61.9938 8.65009 66.5508 6.56397 70.3638 8.59519L139.277 44.6083C143.09 46.5846 144.857 51.9646 143.136 56.4662L85.4298 210.51Z" fill="#393839"/>
<path d="M65.8779 16.7289L137.141 53.9649L84.5429 194.27L13.2801 157.034L65.8779 16.7289Z" fill="#4D4D4F"/>
<path d="M108.494 39.0087L117.887 43.9495L71.0615 69.0379L108.494 39.0087Z" fill="#5B5B5B"/>
<path d="M50.5085 189.045C49.16 192.668 45.5795 194.26 42.5105 192.668C39.4415 191.076 38.093 186.849 39.4415 183.226C40.79 179.602 44.3705 178.01 47.4395 179.602C50.5085 181.249 51.9035 185.476 50.5085 189.045Z" fill="#333132"/>
<path d="M91.4355 24.5637L115.076 36.9165L114.38 38.7738L90.7393 26.4211L91.4355 24.5637Z" fill="#333132"/>
<path d="M31.0248 109.772L16.2378 149.189L126.164 83.3662L137.184 53.9958L125.606 47.957L31.0248 109.772Z" fill="#5B5B5B"/>
<path d="M21.4922 161.376L120.723 97.9142L112.586 119.599L35.0702 168.458L21.4922 161.376Z" fill="#5B5B5B"/>
</svg>
