<svg width="410" height="410" viewBox="0 0 410 410" fill="none" xmlns="http://www.w3.org/2000/svg">
<g opacity="0.7">
<g opacity="0.7">
<path opacity="0.5" d="M354.542 249.772C358.65 257.302 356.15 267.227 348.926 271.881L197.202 370.278C190.011 374.964 180.881 372.583 176.773 365.053L67.0239 162.681C62.9159 155.151 65.4164 145.226 72.6403 140.572L224.364 42.175C231.555 37.4888 240.685 39.8703 244.793 47.4002L354.542 249.772Z" fill="#BEBEBF"/>
</g>
</g>
<path d="M343.237 247.855C347.345 255.385 344.845 265.31 337.621 269.963L185.891 368.432C178.7 373.118 169.57 370.737 165.462 363.207L55.7192 160.763C51.6112 153.233 54.1117 143.308 61.3356 138.655L213.059 40.2575C220.25 35.5713 229.381 37.9528 233.489 45.4827L343.237 247.855Z" fill="#333132"/>
<path d="M338.884 239.846C342.894 247.277 340.411 256.988 333.369 261.59L190.265 354.401C183.19 358.97 174.23 356.682 170.221 349.251L64.7057 154.612C60.6963 147.181 63.1789 137.47 70.2206 132.868L213.286 40.0963C220.361 35.5265 229.321 37.8151 233.33 45.2464L338.884 239.846Z" fill="#393839"/>
<path d="M150.455 95.5031C149.959 94.6183 148.803 94.393 147.867 94.9328C146.926 95.5443 146.538 96.7868 147.034 97.6716C147.53 98.5564 148.719 98.8146 149.66 98.2031C150.562 97.6304 150.951 96.3879 150.455 95.5031Z" fill="#333132"/>
<path d="M255.949 302.782C252.472 303.496 249.559 301.279 249.415 297.873C249.272 294.467 252.005 291.145 255.483 290.431C258.96 289.718 261.873 291.934 262.017 295.34C262.089 298.752 259.427 302.069 255.949 302.782Z" fill="#333132"/>
<path d="M309.749 242.53L217.227 71.8496C216.519 70.5194 215.189 69.81 213.806 69.7459C212.847 69.718 211.831 69.944 210.962 70.5496L95.8241 145.215C93.5267 146.721 92.6364 149.714 93.8404 151.929L186.362 322.609C187.13 324.077 188.636 324.807 190.246 324.71C191.068 324.678 191.874 324.398 192.627 323.909L307.765 249.244C310.063 247.737 310.953 244.745 309.749 242.53Z" fill="#4D4D4F"/>
<path d="M261.421 153.372L187.472 151.2L269.505 168.3L261.421 153.372Z" fill="#5B5B5B"/>
<path d="M97.0167 157.827L114.019 189.217L294.043 213.525L276.948 181.964L97.0167 157.827Z" fill="#5B5B5B"/>
<path d="M124.049 207.723L141.052 239.113L291.994 259.478L307.804 249.205C310.102 247.698 310.992 244.706 309.788 242.491L303.947 231.828L124.049 207.723Z" fill="#5B5B5B"/>
</svg>
