<svg width="211" height="364" viewBox="0 0 211 364" fill="none" xmlns="http://www.w3.org/2000/svg">
<path d="M171.911 244.461L161.169 217.946L157.635 219.977L168.377 246.493L171.911 244.461Z" fill="#F1F2F2"/>
<path d="M172.794 252.367L170.004 245.559L158.333 252.147L161.169 258.954L172.794 252.367Z" fill="#F1F2F2"/>
<path d="M171.219 253.233L168.398 246.429L169.985 245.511L172.806 252.316L171.219 253.233Z" fill="#F1F2F2"/>
<path opacity="0.5" d="M201.578 75.7598C196.602 66.2624 188.93 57.6983 179.211 50.7812C176.328 30.0298 166.47 11.3096 141.127 3.62385C126.108 -0.932685 111.135 0.494665 98.1615 7.5216C80.538 1.15344 56.916 1.48283 28.7835 26.8457L22.692 18.8855L7.85848 34.5863L9.06746 36.1783L2.41797 43.2053L16.74 61.8706L18.228 63.792L24.831 56.7651L25.7145 57.9179L40.548 42.2171L33.108 32.4453C55.707 12.2428 74.8185 9.33324 90.0705 12.7918C76.7715 23.2773 67.0065 40.0212 62.4495 60.2785L62.2635 61.102C60.3105 70.8738 61.6125 80.6457 64.8675 89.3196C63.891 89.594 62.9145 89.8685 62.031 90.1979C48.918 94.8642 42.1755 105.185 42.966 119.239C43.7565 132.469 47.43 144.986 53.7075 155.526C59.6595 165.573 67.797 173.588 77.2365 178.803C97.278 189.838 120.435 186.818 139.267 170.678C152.613 159.26 161.774 141.802 167.121 129.175C172.98 115.286 176.793 101.342 177.909 93.6565C179.443 83.2808 180.606 71.6973 180.141 60.3334C186.419 65.4938 192.138 71.862 196.23 79.6026C203.066 92.6134 204.274 107.71 199.81 124.454C195.067 142.351 182.978 150.092 171.306 157.558C160.89 164.2 151.079 170.514 147.87 183.36C145.592 192.363 146.987 203.452 152.241 217.616L148.195 219.922L158.937 246.383L160.844 245.285L163.634 252.092L173.678 246.383L175.259 245.449L172.422 238.642L174.375 237.544L172.143 232.054L163.634 211.028L157.96 214.267C153.496 202.08 152.148 192.583 153.961 185.446C156.426 175.619 164.703 170.294 174.329 164.145C186.558 156.295 200.369 147.456 205.902 126.65C210.831 107.93 209.39 90.692 201.578 75.7598ZM139.5 10.9802C155.171 15.7014 165.168 25.1439 170.05 39.7467C170.701 41.723 171.306 43.8641 171.771 46.06C163.076 41.1192 153.264 37.3861 144.29 35.6843C141.546 35.1902 138.895 34.8608 136.245 34.751C133.129 30.8532 129.409 27.1751 125.085 23.7714L124.899 23.6067C120.528 20.1481 114.529 15.4269 107.043 11.4194C117.087 7.7412 128.107 7.52161 139.5 10.9802ZM110.345 124.509C118.343 124.18 125.364 120.611 131.223 113.804C134.013 116.494 136.152 119.294 137.5 122.203C141.22 129.944 139.407 137.685 131.874 145.755C127.503 150.476 122.156 150.586 115.925 146.194C109.647 141.747 103.276 133.183 98.394 122.698C102.207 123.905 106.206 124.674 110.345 124.509ZM94.581 113.09C92.535 107.052 91.1865 101.232 90.6285 95.8524C95.6505 96.5661 100.812 97.7738 105.974 99.5306C113.646 102.111 120.481 105.46 125.875 109.357C115.738 120.008 103.742 117.702 94.581 113.09ZM132.106 100.464C131.502 101.562 130.897 102.66 130.246 103.648C124.155 99.0365 116.482 95.1387 107.694 92.2292C101.928 90.3077 96.069 88.9902 90.396 88.2216C90.489 86.1904 90.7215 84.3238 91.14 82.5671C94.1625 68.5681 100.765 57.4238 110.205 50.3969C116.994 45.2914 124.899 42.6014 133.409 42.3818C144.801 58.3571 144.382 77.8459 132.106 100.464ZM68.541 62.5294C72.819 43.37 82.0725 27.6692 94.674 18.2816C95.976 17.2934 97.278 16.4151 98.6265 15.5916C108.205 19.5443 115.832 25.583 121.319 29.92L121.505 30.0847C123.644 31.7865 125.597 33.4883 127.364 35.2451C106.671 38.3194 90.489 55.0083 84.909 80.5908C84.444 82.7867 84.1185 85.1473 83.979 87.5628C79.5615 87.3432 75.2835 87.5079 71.2845 88.002C67.797 79.3281 66.96 70.1053 68.541 62.5294ZM86.211 107.82C81.5145 104.197 77.7945 99.9149 74.9115 95.2485C77.841 95.0289 80.91 94.974 84.072 95.1387C84.444 99.311 85.188 103.593 86.211 107.82ZM171.492 92.5036C170.097 101.836 159.355 144.108 135.408 164.64C118.482 179.133 97.743 181.877 79.8405 172.051C62.0775 162.279 50.685 142.351 49.29 118.8C48.6855 108.314 53.568 101.178 63.798 97.5542C65.1 97.0602 66.495 96.6759 67.9365 96.3465C72.168 104.307 78.027 110.949 84.351 115.451C85.8855 116.549 87.6525 117.702 89.6055 118.8C95.0925 133.348 103.834 146.468 112.623 152.727C121.318 158.875 129.689 158.436 136.199 151.409C141.128 146.084 144.197 140.484 145.313 134.72C146.382 129.23 145.591 123.741 143.08 118.47C141.313 114.847 138.756 111.334 135.408 108.095C136.105 106.997 136.803 105.789 137.454 104.581C147.777 85.5316 150.567 68.0192 145.731 52.4281C144.708 49.1343 143.359 45.9502 141.639 42.8759C142.15 42.9308 142.709 43.0406 143.22 43.1504C150.846 44.5777 162.285 48.4206 173.12 55.4475C174.189 65.8232 173.631 78.0655 171.492 92.5036ZM170.748 239.74L166.563 242.101L170.748 239.74Z" fill="#BEBEBF"/>
<path d="M158.434 231.028C123.791 156.092 188.101 177.832 201.167 128.643C215.954 72.9767 168.199 47.2296 142.205 42.3437C115.747 37.3479 93.1012 53.8173 86.4517 84.5053C79.8022 115.193 112.724 172.836 132.533 151.481C175.592 104.982 41.2537 65.6753 44.5552 122.001C47.6242 174.318 97.1467 203.744 135.742 170.64C159.457 150.328 171.221 108.88 173.081 96.0888C179.312 53.7624 173.965 20.9334 138.718 10.2832C103.471 -0.366962 72.7807 23.4588 63.7597 65.0714L63.9457 64.2479C59.6212 84.1759 70.1302 104.982 84.4987 115.138C98.1232 124.745 119.188 131.553 133.277 105.476C155.411 64.6322 136.207 41.3555 121.745 29.9367C106.4 17.8043 72.4087 -9.48002 25.1182 36.6343" stroke="white" stroke-width="13.7827" stroke-miterlimit="10" stroke-linecap="round"/>
<path d="M15.7634 70.5446L22.5059 63.4078L8.1839 44.6876L1.44141 51.8244L15.7634 70.5446Z" fill="#F1F2F2"/>
<path d="M14.2755 68.6231L21.018 61.4863L6.69602 42.7661L0 49.9029L14.2755 68.6231Z" fill="#F1F2F2"/>
<path d="M14.6944 61.5413L13.8574 62.4197L14.9269 63.847L15.764 62.9687C16.0895 62.6393 16.1359 62.0354 15.8104 61.6511C15.4849 61.2119 15.0199 61.2119 14.6944 61.5413Z" fill="#BEBEBF"/>
<path d="M4.8824 48.8049L4.04541 49.6832L5.1149 51.1106L5.95189 50.2322C6.27739 49.9028 6.32391 49.2989 5.99841 48.9147C5.71941 48.4755 5.2079 48.4755 4.8824 48.8049Z" fill="#BEBEBF"/>
<path d="M11.7036 49.4172L26.5513 33.6874L38.1356 48.9283L23.288 64.6582L11.7036 49.4172Z" fill="#F1F2F2"/>
<path d="M20.2276 25.5831L5.39404 41.284L18.9721 59.0709L33.5731 43.0407L20.2276 25.5831Z" fill="white"/>
<path d="M161.169 217.946L171.911 244.461L156.426 253.245L145.685 226.784L161.169 217.946Z" fill="white"/>
<path opacity="0.5" d="M138.57 288.929L123.504 270.977C119.365 266.036 112.576 265.981 108.391 270.922L83.7464 299.744L79.6544 304.52L79.1894 306.386L74.7254 311.602L77.4689 323.514L75.8879 325.326L69.4709 332.847C69.4709 332.847 68.0294 334.494 69.5639 336.361C70.4939 337.458 71.4239 337.294 71.9819 336.964C72.3074 336.745 72.5399 336.525 72.5399 336.525L78.9569 329.004L80.4449 327.247L90.5354 339.27L89.0474 341.027L82.6304 348.548C82.6304 348.548 81.1889 350.195 82.7234 352.061C83.6534 353.159 84.5834 352.995 85.1414 352.665C85.4669 352.446 85.6994 352.226 85.6994 352.226L92.1164 344.705L93.6044 342.948L94.1624 343.662L103.648 346.132L110.67 337.898L108.112 340.917L109.74 340.423L113.832 335.647L138.477 306.825C142.708 301.885 142.708 293.87 138.57 288.929ZM89.9309 340.697H89.8844C89.8844 340.697 89.9309 340.697 89.9309 340.697ZM89.6519 340.697C89.6054 340.697 89.6054 340.697 89.6519 340.697C89.6054 340.697 89.6054 340.697 89.6519 340.697ZM89.3264 340.807C89.3264 340.807 89.2799 340.807 89.2799 340.862C89.3264 340.862 89.3264 340.862 89.3264 340.807ZM90.2564 340.697H90.3029C90.2564 340.697 90.2564 340.697 90.2564 340.697ZM90.5819 340.807C90.6284 340.807 90.6284 340.807 90.6749 340.862C90.6284 340.862 90.5819 340.807 90.5819 340.807ZM90.9539 341.027C90.9539 341.027 91.0004 341.027 90.9539 341.027C91.0004 341.027 90.9539 341.027 90.9539 341.027ZM91.2794 341.246C91.3259 341.246 91.3259 341.301 91.3724 341.301C91.3259 341.301 91.2794 341.301 91.2794 341.246ZM76.7714 324.997H76.7249C76.7714 324.997 76.7714 324.997 76.7714 324.997ZM76.4924 325.052C76.4459 325.052 76.4459 325.052 76.4924 325.052C76.4459 325.052 76.4459 325.052 76.4924 325.052ZM76.1669 325.161C76.1669 325.161 76.1204 325.161 76.1204 325.216C76.1669 325.161 76.1669 325.161 76.1669 325.161ZM77.0969 325.052H77.1434C77.1434 325.052 77.0969 325.052 77.0969 325.052ZM77.4224 325.161C77.4689 325.161 77.4689 325.161 77.5154 325.216C77.4689 325.161 77.4224 325.161 77.4224 325.161ZM77.7944 325.381C77.8409 325.381 77.8409 325.381 77.7944 325.381C77.8409 325.381 77.8409 325.381 77.7944 325.381ZM78.1199 325.601C78.1664 325.601 78.1664 325.655 78.2129 325.655C78.1664 325.655 78.1664 325.601 78.1199 325.601ZM91.7909 306.002L100.207 316.048L108.624 326.095L91.7909 306.002Z" fill="#BEBEBF"/>
<path d="M103.23 321.209L87.7453 303.806L81.7934 310.723L77.7013 315.554L77.2363 317.421L79.7938 314.401L89.7913 316.981L98.2544 327.028L106.671 337.074L108.763 348.877L106.159 351.897L107.787 351.402L111.879 346.571L117.831 339.654L103.23 321.209Z" fill="#F1F2F2"/>
<path d="M100.58 324.283C111.6 337.404 112.344 342.289 112.344 342.289L111.879 346.571L136.524 317.75C140.709 312.864 140.755 304.849 136.57 299.908L121.505 281.957C117.366 277.016 110.577 276.961 106.392 281.902L81.7471 310.723L85.4205 310.229C85.467 310.229 89.5591 311.162 100.58 324.283Z" fill="white"/>
<path d="M100.58 324.283C111.6 337.404 112.344 342.289 112.344 342.289L111.879 346.571L136.524 317.75C140.709 312.864 140.755 304.849 136.57 299.908L121.505 281.957C117.366 277.016 110.577 276.961 106.392 281.902L81.7471 310.723L85.4205 310.229C85.467 310.229 89.5591 311.162 100.58 324.283Z" fill="white"/>
<path d="M79.794 314.401L72.7725 322.636L82.956 325.271L99.975 345.528L101.695 357.112L108.763 348.877L106.671 337.074L89.7915 316.982L79.794 314.401Z" fill="white"/>
<path d="M72.7725 322.636L75.5625 334.823L92.2095 354.641L101.695 357.112L99.975 345.528L82.956 325.271L72.7725 322.636Z" fill="#F1F2F2"/>
<path d="M81.9796 334.164C82.5376 333.506 82.3516 332.133 81.5146 331.145C80.6776 330.157 79.5151 329.882 78.9571 330.541L73.9351 336.415C74.4931 335.756 75.6556 336.031 76.4926 337.019C77.3296 338.007 77.5621 339.38 76.9576 340.039L81.9796 334.164Z" fill="white"/>
<path d="M77.0041 340.039C77.5621 339.38 77.3761 338.007 76.5391 337.019C75.9811 336.306 75.2371 335.976 74.6326 336.086L67.7041 344.211C67.7041 344.211 66.4952 345.693 67.7972 347.23C69.0992 348.767 69.2851 348.164 69.9826 348.054C70.3081 347.834 70.5406 347.615 70.5406 347.615L77.0041 340.039Z" fill="#F1F2F2"/>
<path d="M67.7968 347.175C66.4948 345.638 67.7038 344.156 67.7038 344.156L74.6323 336.031C74.3533 336.086 74.1208 336.196 73.9348 336.415L67.5178 343.936C67.5178 343.936 66.0763 345.583 67.6108 347.45C68.5408 348.548 69.4708 348.383 70.0288 348.054" fill="#F1F2F2"/>
<path d="M95.1392 349.81C95.6972 349.152 95.5112 347.779 94.6742 346.791C93.8372 345.803 92.6747 345.528 92.1167 346.187L87.0947 352.061C87.6527 351.402 88.8152 351.677 89.6522 352.665C90.4892 353.653 90.7217 355.026 90.1172 355.685L95.1392 349.81Z" fill="white"/>
<path d="M90.117 355.685C90.675 355.026 90.489 353.653 89.652 352.665C89.094 351.951 88.3499 351.622 87.7454 351.732L80.817 359.857C80.817 359.857 79.6079 361.339 80.9099 362.876C82.2119 364.413 83.9789 362.602 83.0954 363.7C83.4209 363.48 83.6535 363.26 83.6535 363.26L90.117 355.685Z" fill="#F1F2F2"/>
<path d="M80.9565 362.821C79.6545 361.284 80.8635 359.802 80.8635 359.802L87.792 351.677C87.513 351.732 87.2805 351.842 87.0945 352.061L80.6775 359.582C80.6775 359.582 79.2359 361.229 80.7704 363.096C81.7004 364.194 82.6305 364.029 83.1885 363.7C84.0255 362.547 82.2584 364.358 80.9565 362.821Z" fill="#F1F2F2"/>
<path d="M70.6014 345.486C70.3999 345.722 70.1377 345.866 69.8724 345.887C69.6072 345.907 69.3607 345.802 69.187 345.595C69.0134 345.389 68.927 345.097 68.9467 344.784C68.9664 344.471 69.0906 344.162 69.2921 343.927C69.4936 343.691 69.7558 343.547 70.021 343.527C70.2862 343.506 70.5328 343.611 70.7064 343.818C70.88 344.025 70.9665 344.317 70.9468 344.63C70.9271 344.943 70.8028 345.251 70.6014 345.486V345.486Z" fill="white"/>
<path d="M83.7361 361.109C83.5346 361.345 83.2724 361.489 83.0072 361.509C82.742 361.529 82.4954 361.425 82.3218 361.218C82.1482 361.011 82.0617 360.719 82.0814 360.406C82.1011 360.093 82.2254 359.785 82.4269 359.549C82.6283 359.313 82.8905 359.17 83.1558 359.149C83.421 359.129 83.6675 359.233 83.8412 359.44C84.0148 359.647 84.1012 359.939 84.0815 360.252C84.0618 360.565 83.9376 360.873 83.7361 361.109Z" fill="white"/>
<path d="M65.4722 103.099L72.6797 101.836L73.9352 103.813L68.0762 107.436L65.4722 103.099Z" fill="#F1F2F2"/>
<path d="M128.805 120.557L133.13 114.737L134.897 116.549L132.014 123.96L128.805 120.557Z" fill="#F1F2F2"/>
<path d="M87.2339 125.443L96.1154 129.45L96.7664 130.932H89.4194L87.2339 125.443Z" fill="#F1F2F2"/>
<path d="M96.2085 22.3441L104.764 18.1719L108.577 20.4227L101.23 24.6498L96.2085 22.3441Z" fill="#F1F2F2"/>
<path d="M177.63 67.1408L176.747 57.4788L179.258 59.2904L179.816 69.0073L177.63 67.1408Z" fill="#F1F2F2"/>
</svg>
