<svg width="287" height="235" viewBox="0 0 287 235" fill="none" xmlns="http://www.w3.org/2000/svg">
<path opacity="0.5" d="M286.228 65.1679L283.577 57.0979L282.926 55.1765L276.974 57.9214L278.09 61.3799L277.625 59.8977L276.184 55.5608L257.63 64.1248L257.77 64.5091L259.025 68.2971C247.726 72.9634 241.495 70.493 237.589 67.9677C230.893 63.6308 225.824 55.0118 219.965 45.0204C211.642 30.8018 202.249 14.7167 184.904 6.42709C169.327 -1.03903 154.679 -0.819444 141.427 7.19566C138.59 8.8975 135.8 10.9836 133.057 13.454C124.873 14.4971 116.968 17.0224 109.714 20.975C92.927 30.0881 80.93 45.6791 74.885 66.1012C69.305 85.041 69.8165 105.243 76.187 123.634C75.3035 126.873 74.606 130.332 74.0945 134.01C71.3045 154.981 76.652 178.038 90.044 202.578L85.9055 206.256L97.949 225.031L99.3905 223.768L104.785 232.168L114.364 223.603L116.131 222.011L110.783 213.667L111.806 212.734L99.7625 193.959L95.5775 197.692L95.2055 198.021C82.883 175.293 77.954 154.158 80.465 135.218C80.5115 134.888 80.558 134.504 80.6045 134.175C88.7885 150.699 101.483 163.161 116.875 169.639C116.875 169.639 116.875 169.639 116.921 169.639L117.572 169.913C117.991 170.078 118.409 170.243 118.828 170.352C132.545 187.7 148.588 197.198 165.049 197.472C176.116 197.637 185.881 193.904 194.018 186.218C200.807 179.795 206.527 170.682 210.898 159.043C219.5 136.206 220.988 109.8 221.221 99.4791C221.686 77.9591 217.315 60.1173 208.247 46.4477C198.575 31.8997 183.23 21.5789 162.631 15.7597C157.144 14.2226 151.61 13.2893 146.123 13.0148C157.237 7.03097 169.466 7.19566 182.579 13.5089C198.157 20.975 206.992 36.1269 214.804 49.4122C225.824 68.1873 236.24 85.9742 261.443 75.4338L262.606 78.8924L281.159 70.3283L280.369 67.9677L286.228 65.1679ZM120.502 41.3422C133.754 32.0095 150.308 29.3744 165.979 35.7975L167.699 36.5112C179.138 41.1775 188.345 50.8944 193.646 63.7406C198.947 76.5867 199.645 91.1347 195.692 104.64C191.74 118.144 183.509 129.014 172.628 135.273C172.163 135.547 171.698 135.767 171.233 136.041C173.233 130.826 174.721 124.842 175 118.529C175.558 105.408 170.629 94.0991 160.445 84.9312C154.819 79.8806 149.285 76.0377 143.891 73.4026C134.638 68.9559 125.663 68.0775 117.154 70.8773C114.317 71.8106 111.481 73.1281 108.784 74.8849C108.877 74.281 109.016 73.6771 109.156 73.0732C111.667 60.4467 115.805 49.9063 120.502 41.3422ZM162.398 139.445C154.307 141.531 145.891 140.982 137.893 137.688C126.314 132.967 117.479 124.238 112.318 112.6C108.598 104.2 106.97 94.703 107.482 84.6567C121.943 72.5791 138.358 74.6653 156.446 90.97C174.256 106.945 168.955 126.763 162.398 139.445ZM79.814 113.039C76.3265 98.5459 76.652 83.1744 80.93 68.6265C86.3705 50.1808 97.205 36.072 112.364 27.8922C116.177 25.8061 120.176 24.214 124.315 23.0063C121.339 26.8491 118.549 31.1312 115.991 35.7975C104.738 44.142 95.7635 56.8783 91.067 72.7987C89.1605 79.2767 88.6025 87.1271 89.2535 95.801C86.3705 100.083 82.8365 105.847 79.814 113.039ZM97.0655 75.2142C99.4835 66.9246 103.25 59.6232 107.947 53.4746C105.761 59.4036 103.994 65.4424 102.832 71.2067C102.181 74.3908 101.716 77.52 101.39 80.5942C99.344 82.5157 97.3445 84.7116 95.3915 87.1271C95.4845 82.7353 96.0425 78.7277 97.0655 75.2142ZM83.72 125.116C83.4875 124.513 83.255 123.909 83.0225 123.36C85.115 116.717 87.8585 111.008 90.5555 106.396C93.392 122.756 99.902 140.762 109.202 156.408C109.481 156.848 109.76 157.342 110.039 157.781C98.6465 150.479 89.486 139.17 83.72 125.116ZM114.457 152.071C104.413 135.108 97.7165 114.96 95.903 97.9969C95.996 97.8322 96.089 97.7224 96.182 97.5577C97.763 95.1971 99.3905 93.0561 101.065 91.0798C101.948 115.674 114.689 136.096 135.847 144.77C142.822 147.625 150.029 148.668 157.19 147.954C146.96 161.679 132.871 166.07 122.222 163.49C119.06 159.483 116.503 155.475 114.457 152.071ZM161.003 23.1161C180.161 28.551 194.344 37.9934 203.086 51.114C211.363 63.521 215.129 79.2767 214.711 99.2595C214.478 109.141 213.13 134.394 204.946 155.969C196.343 178.752 182.905 190.171 165.049 189.896C150.541 189.676 138.451 181.442 129.29 171.89C143.705 171.45 157.376 161.02 165.095 148.338C165.514 147.625 165.979 146.856 166.444 146.033C169.466 145.044 172.442 143.727 175.372 142.08C187.834 134.943 197.18 122.536 201.691 107.11C206.248 91.6836 205.411 75.1044 199.366 60.4467C193.321 45.734 182.812 34.6995 169.745 29.3744L168.025 28.6608C154.819 23.2808 141.148 23.5553 128.825 28.4961C131.15 25.4767 133.522 22.8965 135.754 20.7006C143.984 19.932 152.54 20.7006 161.003 23.1161Z" fill="#BEBEBF"/>
<path opacity="0.5" d="M50.1469 135.602L54.9829 132.857L36.6154 88.1152V88.0603L29.4079 92.1776V92.2325L14.1094 100.961V100.906L6.90186 105.024V105.079L25.2694 149.82L30.1054 147.076L36.0109 161.459C36.2899 162.173 36.8014 162.722 37.4059 162.996C38.0569 163.325 38.8474 163.325 39.5449 162.941C40.8469 162.173 41.4049 160.361 40.7539 158.769L34.8484 144.386L45.4039 138.347L51.3094 152.73C51.5884 153.444 52.0999 153.993 52.7044 154.267C53.3554 154.597 54.1459 154.597 54.8434 154.212C56.1454 153.444 56.7034 151.632 56.0524 150.04L50.1469 135.602Z" fill="#BEBEBF"/>
<path d="M264.326 71.4811C217.779 97.3929 221.918 32.1193 181.463 12.6854C135.707 -9.32871 110.039 44.7458 103.715 74.8848C97.2977 105.628 109.341 133.626 134.684 144.001C160.026 154.377 187.694 138.566 196.482 108.647C205.271 78.7276 191.879 46.0633 166.536 35.6876L164.816 34.9739C134.916 22.7317 102.227 41.397 91.8572 76.6964C81.4877 111.996 114.968 195.605 162.816 196.374C207.224 197.088 215.082 130.661 215.687 102.059C216.57 62.0935 200.714 33.7662 159.515 22.0729C124.175 12.1364 87.6722 29.539 75.7217 70.1086C63.7712 110.678 81.9992 154.981 116.363 169.09L115.712 168.815C132.173 175.568 150.587 164.917 160.352 148.887C169.605 133.68 177.092 109.47 156.26 90.6954C123.663 61.2701 102.413 81.9117 91.5317 97.9968C79.9997 115.015 58.5632 149.107 93.5777 208.616" stroke="#333132" stroke-width="13.7827" stroke-miterlimit="10" stroke-linecap="round"/>
<path d="M108.407 216.232L113.853 224.722L104.289 233.273L98.8432 224.783L108.407 216.232Z" fill="#BEBEBF"/>
<path d="M106.677 217.825L112.124 226.315L102.56 234.867L97.1128 226.377L106.677 217.825Z" fill="#F1F2F2"/>
<path d="M106.226 225.25L106.923 226.293L108.179 225.14L107.528 224.097C107.249 223.658 106.784 223.603 106.412 223.933C106.04 224.262 105.947 224.866 106.226 225.25Z" fill="#BEBEBF"/>
<path d="M102.041 228.983L102.738 230.026L103.994 228.874L103.343 227.831C103.064 227.391 102.599 227.336 102.227 227.666C101.855 227.995 101.762 228.599 102.041 228.983Z" fill="#BEBEBF"/>
<path d="M95.7378 227.834L83.6949 209.059L97.5219 196.697L109.565 215.472L95.7378 227.834Z" fill="#333132"/>
<path d="M95.7427 227.821L83.6998 209.046L93.3379 200.429L105.381 219.204L95.7427 227.821Z" fill="#393839"/>
<path d="M278.836 73.0367L260.252 81.5953L255.402 66.9172L273.986 58.3587L278.836 73.0367Z" fill="#393839"/>
<path d="M255.4 66.9114L273.984 58.3529L275.403 62.6489L256.819 71.2074L255.4 66.9114Z" fill="#333132"/>
<path d="M274.758 60.7126L280.736 57.9588L284.032 67.9317L278.054 70.6855L274.758 60.7126Z" fill="#F1F2F2"/>
<path d="M284.036 67.9553L278.058 70.7084L277.415 68.765L283.394 66.0119L284.036 67.9553Z" fill="#BEBEBF"/>
<path d="M281.35 59.9055L275.371 62.6594L274.729 60.7159L280.707 57.9621L281.35 59.9055Z" fill="#BEBEBF"/>
<path d="M34.9409 128.026L46.7054 156.738" stroke="white" stroke-width="11.318" stroke-miterlimit="10" stroke-linecap="round"/>
<path d="M19.6426 136.755L31.4536 165.521" stroke="white" stroke-width="11.318" stroke-miterlimit="10" stroke-linecap="round"/>
<path d="M29.6685 93.5261L48.0206 138.236L18.3523 155.21L9.85234e-05 110.5L29.6685 93.5261Z" fill="#393839"/>
<path d="M40.8267 142.414L22.4542 97.655L29.6516 93.5372L48.0241 138.296L40.8267 142.414Z" fill="#333132"/>
<path d="M18.373 155.237L0.000585217 110.478L7.19799 106.36L25.5705 151.119L18.373 155.237Z" fill="#393839"/>
</svg>
