<svg width="201" height="426" viewBox="0 0 201 426" fill="none" xmlns="http://www.w3.org/2000/svg">
<path d="M200.9 28.6C200.9 12.8 188.1 0 172.3 0H28.6C12.8 0 0 12.8 0 28.6V396.6C0 412.4 12.8 425.2 28.6 425.2H172.3C188.1 425.2 200.9 412.4 200.9 396.6V28.6V28.6ZM121.4 37.5C121.4 40 119.4 42 116.9 42H86.2C83.7 42 81.7 40 81.7 37.5V37.2C81.7 34.7 83.7 32.7 86.2 32.7H116.9C119.4 32.7 121.4 34.7 121.4 37.2V37.5ZM102.4 413.9C92.1 413.9 83.7 405.5 83.7 395.2C83.7 384.9 92.1 376.5 102.4 376.5C112.7 376.5 121.1 384.9 121.1 395.2C121.1 405.6 112.7 413.9 102.4 413.9ZM186.9 364.5H16.3V60.8H186.8V364.5H186.9Z" fill="black"/>
</svg>
