<svg width="79" height="166" viewBox="0 0 79 166" fill="none" xmlns="http://www.w3.org/2000/svg">
<path d="M78.1001 11.8002C78.1001 5.7002 73.1 0.700195 67 0.700195H11.4001C5.30006 0.700195 0.300049 5.7002 0.300049 11.8002V154.1C0.300049 160.2 5.30006 165.2 11.4001 165.2H67C73.1 165.2 78.1001 160.2 78.1001 154.1V11.8002ZM39.3 8.40018C41.2 8.40018 42.7 9.9002 42.7 11.8002C42.7 13.7002 41.2 15.2002 39.3 15.2002C37.4 15.2002 35.9001 13.7002 35.9001 11.8002C35.9001 9.9002 37.4 8.40018 39.3 8.40018ZM40 160.8C36 160.8 32.8 157.6 32.8 153.6C32.8 149.6 36 146.4 40 146.4C44 146.4 47.2 149.6 47.2 153.6C47.3 157.6 44 160.8 40 160.8ZM72.6001 141.7H6.60005V24.2002H72.6001V141.7Z" fill="black"/>
</svg>
