<svg width="53" height="124" viewBox="0 0 53 124" fill="none" xmlns="http://www.w3.org/2000/svg">
<path d="M50.6001 0.300049H2.70013C2.30013 0.300049 0.900146 0.900024 0.900146 0.900024V3.00003V5.80005V63.5V113.8V123.1C0.900146 123.1 2.30013 123.2 2.70013 123.2H50.6001C51.1001 123.2 52.4001 123.1 52.4001 123.1V116.1V63.5V7.40002V3.00003V0.900024C52.4001 0.800024 51.1001 0.300049 50.6001 0.300049ZM26.5002 111.8C15.7002 111.8 6.90015 103 6.90015 92.2C6.90015 81.4 15.7002 72.6 26.5002 72.6C37.3002 72.6 46.1001 81.4 46.1001 92.2C46.2001 103 37.4002 111.8 26.5002 111.8ZM6.30014 8.40002H47.0002V63.5H6.30014V8.40002Z" fill="black"/>
</svg>
