<svg width="77" height="151" viewBox="0 0 77 151" fill="none" xmlns="http://www.w3.org/2000/svg">
<path d="M76.9 11.2001C76.9 5.1001 71.9 0.100098 65.8 0.100098H11.1C5 0.100098 0 5.1001 0 11.2001V139.1C0 145.2 5 150.2 11.1 150.2H65.8C71.9 150.2 76.9 145.2 76.9 139.1V11.2001ZM46.1 12.9001C46.1 13.9001 45.3 14.7001 44.3 14.7001H32.5C31.5 14.7001 30.7 13.9001 30.7 12.9001V12.8001C30.7 11.8001 31.5 11.0001 32.5 11.0001H44.4C45.4 11.0001 46.2 11.8001 46.2 12.8001V12.9001H46.1ZM38.2 144C34.2 144 31 140.8 31 136.8C31 132.8 34.2 129.6 38.2 129.6C42.2 129.6 45.4 132.8 45.4 136.8C45.4 140.8 42.2 144 38.2 144ZM71.4 124H5.4V25.5001H71.4V124Z" fill="black"/>
</svg>
